<svg xmlns="http://www.w3.org/2000/svg" viewBox="0 0 204.585 67.522">
  <path fill="#191414" d="M32.656 22.667h16.485l-.35 3.675h-6.335l-1.82 19.11h-3.815l1.82-19.11h-6.335zm23.03 5.285a7.488 7.488 0 0 1 2.888.542 5.563 5.563 0 0 1 2.222 1.658q1.96 2.38 1.54 6.825a10.58 10.58 0 0 1-2.8 6.72 7.471 7.471 0 0 1-5.495 2.245 6.214 6.214 0 0 1-5.11-2.24q-1.96-2.38-1.54-6.72a10.6 10.6 0 0 1 2.8-6.825 7.458 7.458 0 0 1 5.495-2.205zm2.782 8.995a6.5 6.5 0 0 0-.542-3.973 2.664 2.664 0 0 0-2.432-1.312 3.632 3.632 0 0 0-2.8 1.313 6.954 6.954 0 0 0-1.453 3.973 6.239 6.239 0 0 0 .56 3.972 2.73 2.73 0 0 0 2.45 1.312 3.615 3.615 0 0 0 2.783-1.312 6.871 6.871 0 0 0 1.435-3.973zm23.888-14.28a9 9 0 0 1 7.26 3.085q2.608 3.08 2.118 8.33a13.077 13.077 0 0 1-3.675 8.3 10.769 10.769 0 0 1-7.838 3.07h-6.755l2.135-22.785zm-4.655 18.9h2.87a6.192 6.192 0 0 0 4.795-2.135 8.983 8.983 0 0 0 2.2-5.355 7.9 7.9 0 0 0-1.19-5.425 5.231 5.231 0 0 0-4.445-2.1h-2.835zm25.55-13.615a7.488 7.488 0 0 1 2.887.542 5.563 5.563 0 0 1 2.223 1.658q1.96 2.38 1.54 6.825a10.58 10.58 0 0 1-2.8 6.72 7.471 7.471 0 0 1-5.495 2.245 6.214 6.214 0 0 1-5.11-2.24q-1.96-2.38-1.54-6.72a10.6 10.6 0 0 1 2.8-6.83 7.458 7.458 0 0 1 5.495-2.2zm2.783 8.995a6.5 6.5 0 0 0-.543-3.973 2.664 2.664 0 0 0-2.432-1.312 3.632 3.632 0 0 0-2.8 1.313 6.954 6.954 0 0 0-1.453 3.972 6.239 6.239 0 0 0 .56 3.972 2.73 2.73 0 0 0 2.45 1.313 3.615 3.615 0 0 0 2.783-1.313 6.871 6.871 0 0 0 1.435-3.972zm19.2 4.795h8.362l-.315 3.71h-12.215l2.135-22.785h3.85zm13.44-13.37h3.812l-1.61 17.08h-3.815zm0-5.425a2.986 2.986 0 0 1 .822-1.8 2.437 2.437 0 0 1 1.8-.683 2 2 0 0 1 1.662.683 2.49 2.49 0 0 1 .438 1.837 2.581 2.581 0 0 1-.77 1.785 2.534 2.534 0 0 1-1.82.665 2.029 2.029 0 0 1-1.645-.665 2.491 2.491 0 0 1-.49-1.822zm15.834 5.005a6.061 6.061 0 0 1 4.428 1.452 4.4 4.4 0 0 1 1.3 3.658h-3.61a1.6 1.6 0 0 0-.6-1.3 2.761 2.761 0 0 0-1.785-.49 3.157 3.157 0 0 0-1.89.508 1.69 1.69 0 0 0-.77 1.208q-.14 1.19 1.575 1.75l3.57 1.54a6.319 6.319 0 0 1 2.555 1.7 3.084 3.084 0 0 1 .753 2.362 5.511 5.511 0 0 1-.682 2.293 5.915 5.915 0 0 1-1.505 1.7 7.912 7.912 0 0 1-5.071 1.609 7.169 7.169 0 0 1-4.795-1.49 4.641 4.641 0 0 1-1.5-4.218h3.57a1.863 1.863 0 0 0 .647 1.785 3.423 3.423 0 0 0 2.083.56 3.5 3.5 0 0 0 2.1-.56 1.893 1.893 0 0 0 .858-1.313 1.255 1.255 0 0 0-.333-1.138 4.244 4.244 0 0 0-1.365-.735l-3.26-1.361q-3.57-1.47-3.22-4.69a4.629 4.629 0 0 1 2.065-3.5 8.4 8.4 0 0 1 4.882-1.33zm17.938 17.08a9.3 9.3 0 0 1-3.36.91 6.219 6.219 0 0 1-2.1-.315 4.026 4.026 0 0 1-1.505-.945 4.707 4.707 0 0 1-1.085-3.99l.875-9.45h-2.1l.28-2.835h2.1l.42-4.445h3.85l-.42 4.445h4.1l-.285 2.835h-4.13l-.84 9.31q-.21 2.03 1.575 2.03a6.808 6.808 0 0 0 2.345-.56z"/>
  <g fill="none">
    <path d="M0 0h204.585v67.522H0z"/>
    <path fill="#191414" d="M5 5v57.5216h194.5853V5H5M0 0h204.5853v67.5216H0V0z"/>
  </g>
</svg>
